<svg width="253" height="74" viewBox="0 0 253 74" fill="none" xmlns="http://www.w3.org/2000/svg">
<mask id="mask0_1_1287" style="mask-type:luminance" maskUnits="userSpaceOnUse" x="0" y="0" width="253" height="74">
<path d="M252.289 0.757812H0V73.1698H252.289V0.757812Z" fill="white"/>
</mask>
<g mask="url(#mask0_1_1287)">
<path d="M45.7 40.8359C44.2133 40.8362 42.7875 41.4269 41.7363 42.4782C40.685 43.5295 40.0943 44.9552 40.094 46.4419V47.5179C40.094 51.3474 38.5728 55.02 35.8649 57.7279C33.1571 60.4357 29.4845 61.9569 25.655 61.9569C21.8255 61.9569 18.1529 60.4357 15.4451 57.7279C12.7372 55.02 11.216 51.3474 11.216 47.5179V28.1939C11.216 26.7066 10.6252 25.2802 9.57345 24.2285C8.52175 23.1768 7.09533 22.5859 5.608 22.5859C4.12067 22.5859 2.69425 23.1768 1.64255 24.2285C0.590841 25.2802 3.13432e-08 26.7066 0 28.1939V47.5189C0.084261 54.2663 2.82375 60.7087 7.6249 65.4502C12.4261 70.1918 18.9021 72.8506 25.65 72.8506C32.3979 72.8506 38.8739 70.1918 43.6751 65.4502C48.4762 60.7087 51.2157 54.2663 51.3 47.5189V46.4429C51.3 44.9571 50.7102 43.532 49.6602 42.4807C48.6102 41.4293 47.1859 40.8378 45.7 40.8359Z" fill="#707070"/>
<path d="M45.699 0.757812H27.436C25.9491 0.757813 24.5231 1.3485 23.4716 2.39992C22.4202 3.45134 21.8295 4.87738 21.8295 6.36431C21.8295 7.85125 22.4202 9.27728 23.4716 10.3287C24.5231 11.3801 25.9491 11.9708 27.436 11.9708H40.092V24.6268C40.092 26.1137 40.6827 27.5398 41.7341 28.5912C42.7856 29.6426 44.2116 30.2333 45.6985 30.2333C47.1855 30.2333 48.6115 29.6426 49.6629 28.5912C50.7143 27.5398 51.305 26.1137 51.305 24.6268V6.36381C51.3048 4.87709 50.714 3.45134 49.6628 2.40006C48.6115 1.34879 47.1858 0.758078 45.699 0.757812Z" fill="#707070"/>
<path d="M11.208 6.36563C11.208 5.25805 10.8796 4.17535 10.2642 3.25443C9.64889 2.33352 8.77429 1.61575 7.75103 1.1919C6.72776 0.768051 5.60179 0.657153 4.51549 0.87323C3.4292 1.08931 2.43137 1.62266 1.6482 2.40583C0.865026 3.189 0.331678 4.18683 0.115601 5.27312C-0.100477 6.35942 0.010422 7.48539 0.434273 8.50865C0.858123 9.53192 1.57589 10.4065 2.4968 11.0219C3.41772 11.6372 4.50042 11.9656 5.608 11.9656C7.09321 11.9656 8.51759 11.3756 9.5678 10.3254C10.618 9.27522 11.208 7.85084 11.208 6.36563Z" fill="#707070"/>
<path d="M87.144 30.578C87.1404 31.9022 86.8915 33.2144 86.41 34.448C85.9093 35.7377 85.1269 36.8993 84.12 37.848C82.9546 38.9181 81.5853 39.7422 80.094 40.271C78.1722 40.9387 76.1459 41.2551 74.112 41.205C72.3409 41.2161 70.5716 41.0897 68.82 40.827C67.3755 40.6111 65.9485 40.2912 64.55 39.87C64.3154 39.8131 64.0956 39.7071 63.905 39.559C63.8136 39.4935 63.7396 39.4067 63.6892 39.3062C63.6389 39.2057 63.6138 39.0944 63.616 38.982V32.357C63.6159 32.1199 63.6854 31.8879 63.816 31.69C63.9003 31.5815 64.0162 31.5019 64.1477 31.4621C64.2791 31.4223 64.4197 31.4244 64.55 31.468C65.024 31.5266 65.6467 31.5933 66.418 31.668C67.1893 31.7427 68.0267 31.8243 68.93 31.913C69.834 32.0023 70.7383 32.0767 71.643 32.136C72.5477 32.1953 73.3707 32.2247 74.112 32.224C74.3449 32.2531 74.5813 32.2346 74.8068 32.1696C75.0323 32.1047 75.2423 31.9945 75.424 31.846C75.6562 31.566 75.775 31.2092 75.757 30.846C75.7575 30.6077 75.6707 30.3775 75.513 30.199C75.2178 29.906 74.8808 29.6583 74.513 29.464L67.841 25.599C66.8777 25.057 65.9943 24.3839 65.216 23.599C64.5673 22.9344 64.0204 22.1775 63.593 21.353C63.1967 20.5815 62.9122 19.7576 62.748 18.906C62.5837 18.0491 62.5016 17.1785 62.503 16.306C62.497 15.127 62.6849 13.955 63.059 12.837C63.4354 11.7301 64.095 10.741 64.972 9.96798C66.0413 9.06012 67.2922 8.39119 68.641 8.00598C70.5202 7.47078 72.4696 7.22298 74.423 7.27098C75.3717 7.27098 76.38 7.30832 77.448 7.38298C78.516 7.45765 79.5463 7.55365 80.539 7.67098C81.5317 7.79098 82.436 7.92432 83.252 8.07098C83.9185 8.18559 84.5787 8.33412 85.23 8.51598C85.4586 8.57103 85.6716 8.67738 85.853 8.82698C85.9388 8.89641 86.0076 8.98464 86.0539 9.08487C86.1002 9.18509 86.1228 9.29462 86.12 9.40498V16.032C86.126 16.2717 86.0724 16.5091 85.964 16.723C85.86 16.9163 85.615 16.983 85.229 16.923C84.6357 16.863 83.8947 16.7963 83.006 16.723C82.1173 16.6497 81.1763 16.575 80.183 16.499C79.1897 16.4263 78.1897 16.3673 77.183 16.322C76.1763 16.2767 75.257 16.2547 74.425 16.256C74.2905 16.2371 74.1534 16.2471 74.023 16.2854C73.8927 16.3237 73.772 16.3893 73.669 16.478C73.5546 16.615 73.4913 16.7875 73.49 16.966C73.493 17.0756 73.5183 17.1835 73.5644 17.2831C73.6104 17.3826 73.6763 17.4718 73.758 17.545C74.1829 17.8796 74.6457 18.1629 75.137 18.389L81.452 21.725C83.2182 22.5709 84.7242 23.8766 85.812 25.505C86.7223 27.0369 87.1844 28.7935 87.146 30.575" fill="#707070"/>
<path d="M111.339 39.9849C111.107 40.1481 110.853 40.2755 110.583 40.3629C109.762 40.627 108.922 40.8276 108.071 40.9629C106.975 41.1362 105.867 41.2181 104.757 41.2079C99.923 41.2079 96.3353 39.9033 93.994 37.2939C91.6527 34.6846 90.481 30.9339 90.479 26.0419V22.4419C90.479 17.5206 91.6503 13.7623 93.993 11.1669C96.3357 8.57159 99.9233 7.27426 104.756 7.27492C105.888 7.26711 107.018 7.34903 108.137 7.51992C108.97 7.63923 109.789 7.8402 110.583 8.11992C110.852 8.20766 111.107 8.33506 111.339 8.49792C111.408 8.58027 111.46 8.67605 111.491 8.77928C111.522 8.88251 111.531 8.99098 111.518 9.09792V16.1239C111.518 16.7473 111.221 17.0139 110.628 16.9239C110.154 16.8653 109.457 16.7836 108.538 16.6789C107.608 16.5748 106.674 16.5228 105.738 16.5229C105.102 16.5178 104.468 16.5849 103.847 16.7229C103.283 16.8484 102.771 17.1433 102.38 17.5679C101.932 18.0867 101.612 18.7031 101.445 19.3679C101.196 20.3712 101.084 21.4036 101.112 22.4369V26.0369C101.082 27.107 101.194 28.1763 101.445 29.2169C101.602 29.8837 101.932 30.4973 102.402 30.9959C102.806 31.3911 103.316 31.6612 103.87 31.7739C104.499 31.8991 105.14 31.9587 105.782 31.9519C106.547 31.9535 107.312 31.9165 108.073 31.8409C108.799 31.7663 109.651 31.6699 110.63 31.5519C110.744 31.515 110.866 31.5037 110.985 31.5189C111.104 31.5341 111.219 31.5755 111.32 31.6399C111.399 31.7393 111.458 31.8535 111.492 31.9757C111.526 32.098 111.536 32.2259 111.52 32.3519V39.3789C111.533 39.4859 111.524 39.5944 111.493 39.6976C111.462 39.8009 111.411 39.8966 111.341 39.9789" fill="#707070"/>
<path d="M142.475 26.175C142.546 28.6084 142.145 31.0325 141.296 33.314C140.615 35.0734 139.542 36.6549 138.16 37.939C136.864 39.1064 135.321 39.9655 133.646 40.452C130.174 41.4601 126.487 41.4601 123.015 40.452C121.34 39.9657 119.797 39.1066 118.502 37.939C117.119 36.6557 116.046 35.074 115.365 33.314C114.517 31.0322 114.119 28.608 114.192 26.175V22.305C114.121 19.8716 114.521 17.4473 115.371 15.166C116.052 13.4057 117.125 11.8234 118.508 10.539C119.804 9.37244 121.347 8.51373 123.021 8.02701C126.493 7.01769 130.18 7.01769 133.652 8.02701C135.327 8.51392 136.87 9.3726 138.166 10.539C139.548 11.8242 140.62 13.4063 141.302 15.166C142.151 17.4474 142.552 19.8716 142.481 22.305L142.475 26.175ZM131.845 22.305C131.968 20.7615 131.684 19.2127 131.022 17.813C130.699 17.4102 130.289 17.0852 129.823 16.8618C129.357 16.6385 128.848 16.5225 128.331 16.5225C127.815 16.5225 127.305 16.6385 126.839 16.8618C126.373 17.0852 125.963 17.4102 125.64 17.813C124.978 19.2127 124.694 20.7615 124.817 22.305V26.175C124.694 27.7185 124.978 29.2673 125.64 30.667C125.964 31.0695 126.373 31.3942 126.839 31.6173C127.305 31.8404 127.815 31.9563 128.331 31.9563C128.847 31.9563 129.357 31.8404 129.823 31.6173C130.289 31.3942 130.698 31.0695 131.022 30.667C131.684 29.2673 131.968 27.7185 131.845 26.175V22.305Z" fill="#707070"/>
<path d="M165.999 40.4088C165.818 40.5585 165.605 40.6649 165.376 40.7198C164.485 40.8671 163.433 40.9854 162.218 41.0748C161.003 41.1641 159.817 41.2088 158.659 41.2088C157.244 41.207 155.832 41.0957 154.434 40.8758C153.063 40.6728 151.752 40.1799 150.587 39.4298C149.398 38.6345 148.434 37.547 147.787 36.2718C146.988 34.5628 146.614 32.6856 146.699 30.8008V8.60677C146.699 8.48821 146.725 8.37111 146.775 8.26356C146.825 8.15601 146.898 8.06055 146.988 7.98377C147.159 7.81401 147.391 7.71847 147.632 7.71777H156.306C156.54 7.72287 156.763 7.81817 156.929 7.9838C157.095 8.14943 157.19 8.3726 157.195 8.60677V30.8008C157.145 31.2054 157.258 31.6133 157.507 31.9358C157.846 32.1668 158.256 32.2693 158.663 32.2248H165.38C165.614 32.2306 165.837 32.3262 166.003 32.4919C166.169 32.6576 166.264 32.8806 166.27 33.1148V39.8308C166.273 39.9412 166.251 40.0508 166.204 40.1511C166.158 40.2514 166.089 40.3396 166.003 40.4088" fill="#707070"/>
<path d="M188.418 40.764C188.304 40.7657 188.192 40.7427 188.088 40.6964C187.985 40.6501 187.892 40.5817 187.818 40.496C187.655 40.3206 187.54 40.106 187.484 39.873L186.684 34.893H179.924L179.124 39.873C179.068 40.1056 178.953 40.32 178.791 40.496C178.716 40.5815 178.624 40.6498 178.521 40.6961C178.417 40.7424 178.304 40.7655 178.191 40.764H168.94C168.825 40.7784 168.708 40.761 168.603 40.7138C168.497 40.6666 168.406 40.5912 168.34 40.496C168.288 40.4019 168.255 40.2983 168.243 40.1912C168.232 40.0842 168.243 39.9759 168.274 39.873L173.565 13.009C173.724 12.0049 174.104 11.0486 174.677 10.209C175.21 9.46939 175.911 8.86742 176.723 8.453C177.632 7.99726 178.609 7.6894 179.615 7.541C182.063 7.1849 184.549 7.1849 186.997 7.541C187.997 7.68718 188.966 7.99521 189.867 8.453C190.67 8.8718 191.363 9.47329 191.89 10.209C192.467 11.0516 192.861 12.0053 193.048 13.009L198.34 39.873C198.371 39.976 198.382 40.0843 198.37 40.1913C198.359 40.2984 198.326 40.402 198.273 40.496C198.207 40.5912 198.116 40.6666 198.01 40.7138C197.905 40.761 197.788 40.7784 197.673 40.764H188.418ZM183.704 16.388C183.683 16.2439 183.646 16.1026 183.593 15.967C183.567 15.914 183.526 15.8704 183.474 15.8424C183.422 15.8144 183.362 15.8034 183.304 15.811C183.246 15.8032 183.186 15.814 183.135 15.8421C183.083 15.8701 183.041 15.9139 183.016 15.967C182.962 16.1024 182.924 16.2437 182.904 16.388L181.258 26.708H185.349L183.704 16.388Z" fill="#707070"/>
<path d="M225.668 39.6989C225.429 39.838 225.164 39.9284 224.89 39.9649C223.525 40.2623 221.939 40.5439 220.13 40.8099C218.186 41.0863 216.224 41.22 214.26 41.2099C213.248 41.2052 212.237 41.1307 211.235 40.9869C210.152 40.835 209.091 40.5515 208.077 40.1429C207.012 39.713 206.004 39.1524 205.077 38.4739C204.064 37.7265 203.197 36.7994 202.519 35.7389C201.724 34.4908 201.132 33.1249 200.763 31.6919C200.303 29.8753 200.086 28.0057 200.117 26.1319V22.3519C200.006 19.6598 200.5 16.977 201.563 14.5009C202.323 12.7999 203.479 11.305 204.933 10.1406C206.388 8.97629 208.1 8.1762 209.926 7.80694C211.497 7.46618 213.099 7.28757 214.706 7.27394C216.769 7.24715 218.831 7.40343 220.867 7.74094C222.224 7.9725 223.568 8.27728 224.892 8.65394C225.182 8.72357 225.454 8.85226 225.692 9.03194C225.801 9.21192 225.848 9.42267 225.826 9.63194V16.1699C225.846 16.4079 225.799 16.6466 225.692 16.8599C225.604 16.9929 225.392 17.0299 225.069 16.9709C224.743 16.9416 224.276 16.8969 223.669 16.8369C223.062 16.7769 222.395 16.7249 221.669 16.6809C220.942 16.6369 220.185 16.5999 219.4 16.5699C218.615 16.5399 217.881 16.5249 217.2 16.5249C216.18 16.5097 215.16 16.584 214.153 16.7469C213.428 16.8552 212.746 17.1545 212.175 17.6139C211.644 18.0867 211.265 18.7055 211.085 19.3929C210.838 20.3588 210.726 21.3543 210.752 22.3509V26.2209C210.717 27.3651 210.836 28.5089 211.108 29.6209C211.265 30.2802 211.569 30.8955 211.997 31.4209C212.295 31.7737 212.702 32.0164 213.154 32.1099C213.521 32.1803 213.893 32.2177 214.266 32.2219C214.473 32.2219 214.717 32.2139 215 32.1989C215.248 32.1897 215.494 32.1524 215.733 32.0879V24.0849C215.739 23.8508 215.835 23.6279 216 23.4623C216.166 23.2967 216.389 23.201 216.623 23.1949H224.941C225.175 23.201 225.398 23.2968 225.563 23.4624C225.729 23.628 225.824 23.8509 225.83 24.0849V38.9849C225.83 39.3709 225.778 39.6079 225.674 39.6969" fill="#707070"/>
<path d="M252.022 40.43C251.85 40.5899 251.632 40.6914 251.399 40.72C250.48 40.838 249.249 40.9487 247.708 41.052C246.167 41.1553 244.417 41.2073 242.459 41.208C241.044 41.2067 239.632 41.0957 238.234 40.876C236.863 40.6728 235.552 40.1795 234.387 39.429C233.198 38.6344 232.234 37.5472 231.587 36.272C230.786 34.563 230.412 32.6853 230.497 30.8V17.679C230.413 15.7943 230.787 13.9173 231.587 12.209C232.234 10.9336 233.199 9.84584 234.387 9.05C235.552 8.30011 236.863 7.80747 238.234 7.605C239.632 7.38468 241.044 7.27301 242.459 7.271C244.416 7.271 246.165 7.323 247.708 7.427C249.251 7.531 250.481 7.64233 251.399 7.761C251.632 7.78965 251.85 7.89074 252.022 8.05C252.107 8.12467 252.175 8.217 252.222 8.32061C252.268 8.42421 252.291 8.53661 252.289 8.65V15.365C252.283 15.5993 252.188 15.8224 252.022 15.9882C251.856 16.1541 251.633 16.2499 251.399 16.256H242.459C242.051 16.2118 241.641 16.3138 241.302 16.544C241.054 16.8665 240.942 17.2738 240.991 17.678V20.078H251.401C251.635 20.0841 251.858 20.1799 252.024 20.3458C252.19 20.5116 252.285 20.7347 252.291 20.969V27.24C252.285 27.4742 252.19 27.6972 252.024 27.8629C251.858 28.0285 251.635 28.1242 251.401 28.13H240.991V30.799C240.942 31.2035 241.054 31.611 241.302 31.934C241.641 32.1645 242.051 32.2667 242.459 32.222H251.399C251.633 32.2281 251.856 32.3239 252.022 32.4898C252.188 32.6556 252.283 32.8787 252.289 33.113V39.829C252.291 39.9424 252.268 40.0549 252.222 40.1585C252.176 40.2621 252.108 40.3555 252.022 40.43Z" fill="#707070"/>
<path d="M111.701 66.1859C111.701 66.4309 111.572 66.5529 111.312 66.5529H108.112C108.057 66.5553 108.002 66.5464 107.95 66.5268C107.899 66.5072 107.852 66.4773 107.812 66.4389C107.732 66.3556 107.677 66.2518 107.652 66.1389L106.828 62.3839H102.135L101.311 66.1389C101.286 66.2518 101.231 66.3556 101.151 66.4389C101.111 66.4773 101.064 66.5072 101.013 66.5268C100.961 66.5464 100.906 66.5553 100.851 66.5529H97.646C97.385 66.5529 97.256 66.4309 97.256 66.1859C97.2561 66.1703 97.2598 66.1549 97.267 66.1409C97.2758 66.1191 97.2799 66.0955 97.279 66.0719L100.69 51.8779C100.795 51.3991 100.997 50.947 101.285 50.5499C101.524 50.2307 101.832 49.9687 102.185 49.7829C102.534 49.6058 102.909 49.4859 103.296 49.4279C103.69 49.3666 104.088 49.3359 104.486 49.3359C104.881 49.3356 105.276 49.3664 105.666 49.4279C106.049 49.4871 106.421 49.6069 106.766 49.7829C107.119 49.9687 107.427 50.2307 107.666 50.5499C107.955 50.9467 108.159 51.3988 108.266 51.8779L111.677 66.0719C111.675 66.0955 111.679 66.1191 111.688 66.1409C111.695 66.1549 111.699 66.1703 111.699 66.1859M104.788 52.9259C104.768 52.8353 104.738 52.7473 104.697 52.6639C104.663 52.6119 104.594 52.5859 104.49 52.5859C104.322 52.5859 104.216 52.6999 104.17 52.9289L102.77 59.2469H106.181L104.788 52.9259Z" fill="#707070"/>
<path d="M134.64 61.6256C134.673 62.4972 134.475 63.362 134.066 64.1326C133.697 64.7842 133.165 65.3285 132.522 65.7116C131.816 66.122 131.039 66.3977 130.232 66.5246C129.307 66.6809 128.37 66.7571 127.432 66.7526C127.051 66.7526 126.662 66.7453 126.265 66.7306C125.865 66.7146 125.482 66.6966 125.109 66.6726C124.736 66.6486 124.387 66.6236 124.066 66.5926C123.79 66.5685 123.515 66.5304 123.242 66.4786C122.883 66.4456 122.543 66.3016 122.27 66.0666C122.045 65.7551 121.944 65.3715 121.985 64.9896V51.0716C121.945 50.6913 122.043 50.3092 122.26 49.9946C122.52 49.7603 122.849 49.6158 123.197 49.5826C123.397 49.5516 123.651 49.5216 123.965 49.4906C124.279 49.4596 124.62 49.4336 124.995 49.4106C125.37 49.3876 125.754 49.3686 126.151 49.3536C126.548 49.3386 126.929 49.3306 127.296 49.3306C128.286 49.3227 129.274 49.403 130.249 49.5706C131.048 49.7008 131.819 49.9681 132.527 50.3606C133.141 50.7082 133.651 51.2141 134.004 51.8256C134.374 52.5309 134.553 53.3208 134.522 54.1166V54.5286C134.533 55.2323 134.361 55.9269 134.022 56.5436C133.697 57.1281 133.201 57.5995 132.601 57.8946C133.23 58.2039 133.757 58.6879 134.119 59.2887C134.48 59.8895 134.661 60.5817 134.64 61.2826V61.6256ZM130.747 54.3686C130.765 54.0961 130.709 53.8238 130.586 53.58C130.463 53.3362 130.277 53.1299 130.047 52.9826C129.279 52.622 128.431 52.4679 127.585 52.5356H126.704C126.528 52.5356 126.361 52.5356 126.204 52.5476C126.047 52.5596 125.926 52.5586 125.85 52.5586V56.5196H128.413C128.796 56.5304 129.179 56.4805 129.546 56.3716C129.807 56.2923 130.05 56.1595 130.257 55.9816C130.429 55.8259 130.559 55.6291 130.634 55.4096C130.712 55.1845 130.751 54.9478 130.749 54.7096L130.747 54.3686ZM130.839 61.2816C130.847 60.7558 130.659 60.2457 130.312 59.8506C130.056 59.6209 129.755 59.4481 129.427 59.3435C129.1 59.2388 128.754 59.2048 128.412 59.2436H125.849V63.5256H126.249C126.425 63.5256 126.608 63.5256 126.799 63.5376C126.99 63.5496 127.172 63.5486 127.349 63.5486H127.726C128.574 63.6283 129.425 63.4447 130.165 63.0226C130.388 62.8464 130.566 62.6194 130.683 62.3605C130.801 62.1017 130.854 61.8185 130.84 61.5346L130.839 61.2816Z" fill="#707070"/>
<path d="M149.314 60.5968C149.314 60.9634 149.154 61.1468 148.833 61.1468H141.533V61.1918C141.532 61.5053 141.57 61.8178 141.647 62.1218C141.717 62.4118 141.85 62.6828 142.036 62.9158C142.23 63.1514 142.478 63.3378 142.758 63.4598C143.117 63.6067 143.503 63.6749 143.891 63.6598C144.258 63.6598 144.647 63.6521 145.059 63.6368L146.284 63.5918C146.688 63.5764 147.066 63.5571 147.417 63.5338C147.768 63.5118 148.059 63.4848 148.287 63.4538H148.356C148.646 63.4538 148.791 63.5768 148.791 63.8208V65.5738C148.801 65.7179 148.769 65.8618 148.7 65.9888C148.6 66.1031 148.461 66.1767 148.31 66.1958C147.601 66.3761 146.883 66.5146 146.158 66.6108C145.315 66.7109 144.466 66.757 143.617 66.7488C142.919 66.7463 142.225 66.6453 141.556 66.4488C140.876 66.2541 140.244 65.9189 139.702 65.4648C139.124 64.9692 138.67 64.3462 138.374 63.6448C138.015 62.7627 137.845 61.8155 137.874 60.8638V59.2638C137.863 58.4145 137.995 57.5694 138.264 56.7638C138.499 56.0557 138.886 55.4073 139.397 54.8638C139.909 54.3357 140.53 53.9261 141.217 53.6638C141.997 53.3741 142.825 53.2337 143.657 53.2498C144.5 53.2332 145.338 53.3891 146.119 53.7078C146.797 53.9901 147.403 54.4202 147.893 54.9668C148.376 55.5193 148.739 56.1664 148.958 56.8668C149.201 57.6434 149.32 58.4532 149.313 59.2668L149.314 60.5968ZM145.697 58.7648C145.75 58.082 145.555 57.4031 145.147 56.8528C144.958 56.6421 144.724 56.4763 144.463 56.3675C144.202 56.2586 143.92 56.2095 143.637 56.2238C143.35 56.2112 143.064 56.2621 142.798 56.3729C142.533 56.4837 142.296 56.6517 142.103 56.8648C141.685 57.4059 141.481 58.0826 141.531 58.7648V58.8558H145.697V58.7648Z" fill="#707070"/>
<path d="M159.663 66.5757C159.311 66.6357 159.006 66.6817 158.747 66.7117C158.451 66.7434 158.153 66.7584 157.855 66.7567C157.301 66.7629 156.748 66.7134 156.204 66.6087C155.761 66.5255 155.348 66.3233 155.011 66.0237C154.668 65.6943 154.417 65.2805 154.283 64.8237C154.098 64.1801 154.014 63.512 154.032 62.8427V56.2007L152.201 55.9007C152.079 55.8698 151.965 55.8109 151.869 55.7287C151.822 55.6919 151.785 55.645 151.759 55.5914C151.733 55.5378 151.72 55.4791 151.721 55.4197V53.9117C151.728 53.7863 151.781 53.6678 151.869 53.579C151.958 53.4902 152.077 53.4374 152.202 53.4307H154.033V51.5527C154.031 51.4955 154.043 51.4387 154.066 51.3866C154.09 51.3346 154.126 51.2887 154.17 51.2527C154.262 51.1752 154.372 51.1204 154.489 51.0927L157.265 50.6117H157.333C157.442 50.6048 157.55 50.6406 157.633 50.7117C157.672 50.7482 157.702 50.7927 157.722 50.8421C157.741 50.8915 157.75 50.9446 157.747 50.9977V53.4247H159.624C159.684 53.4245 159.743 53.4367 159.798 53.4604C159.853 53.4841 159.903 53.519 159.944 53.5627C159.988 53.6043 160.022 53.6545 160.046 53.71C160.07 53.7656 160.081 53.8253 160.081 53.8857V55.7547C160.081 55.815 160.07 55.8748 160.046 55.9304C160.022 55.9859 159.988 56.036 159.944 56.0777C159.903 56.1214 159.853 56.1562 159.798 56.18C159.743 56.2037 159.684 56.2159 159.624 56.2157H157.747V62.8857C157.722 63.1841 157.761 63.4845 157.861 63.7667C157.938 63.8967 158.151 63.9633 158.502 63.9667H159.624C159.944 63.9667 160.106 64.0947 160.106 64.3517V66.1237C160.106 66.3817 159.96 66.5327 159.67 66.5777" fill="#707070"/>
<path d="M170.441 66.5756C170.089 66.6356 169.784 66.6816 169.525 66.7116C169.229 66.7433 168.931 66.7583 168.633 66.7566C168.079 66.7629 167.526 66.7133 166.982 66.6086C166.539 66.5254 166.126 66.3232 165.789 66.0236C165.446 65.6942 165.195 65.2804 165.061 64.8236C164.877 64.18 164.792 63.5119 164.811 62.8426V56.2006L162.98 55.9006C162.858 55.8697 162.744 55.8109 162.648 55.7286C162.601 55.6919 162.564 55.6449 162.538 55.5913C162.512 55.5378 162.499 55.479 162.5 55.4196V53.9116C162.507 53.7862 162.56 53.6678 162.648 53.579C162.737 53.4902 162.856 53.4373 162.981 53.4306H164.812V51.5526C164.81 51.4954 164.822 51.4386 164.845 51.3866C164.869 51.3345 164.905 51.2887 164.949 51.2526C165.041 51.1751 165.151 51.1203 165.268 51.0926L168.041 50.6146H168.109C168.218 50.6077 168.326 50.6436 168.409 50.7146C168.448 50.7511 168.478 50.7956 168.498 50.845C168.517 50.8944 168.526 50.9475 168.523 51.0006V53.4276H170.4C170.46 53.4274 170.519 53.4396 170.574 53.4633C170.629 53.4871 170.679 53.5219 170.72 53.5656C170.764 53.6072 170.798 53.6574 170.822 53.7129C170.845 53.7685 170.857 53.8283 170.857 53.8886V55.7576C170.857 55.818 170.845 55.8777 170.822 55.9333C170.798 55.9888 170.764 56.039 170.72 56.0806C170.679 56.1243 170.629 56.1592 170.574 56.1829C170.519 56.2066 170.46 56.2188 170.4 56.2186H168.523V62.8856C168.498 63.1841 168.537 63.4844 168.637 63.7666C168.714 63.8966 168.927 63.9633 169.278 63.9666H170.4C170.72 63.9666 170.882 64.0946 170.882 64.3516V66.1236C170.882 66.3816 170.736 66.5326 170.446 66.5776" fill="#707070"/>
<path d="M185.234 60.597C185.234 60.9636 185.074 61.147 184.753 61.147H177.453V61.192C177.452 61.5055 177.49 61.818 177.567 62.122C177.637 62.412 177.77 62.683 177.956 62.916C178.151 63.1516 178.398 63.338 178.678 63.46C179.037 63.6069 179.423 63.6751 179.811 63.66C180.178 63.66 180.567 63.6523 180.979 63.637L182.204 63.592C182.608 63.5766 182.986 63.5573 183.337 63.534C183.688 63.512 183.979 63.485 184.207 63.454H184.276C184.566 63.454 184.711 63.577 184.711 63.821V65.574C184.721 65.7181 184.689 65.862 184.62 65.989C184.52 66.1033 184.381 66.1769 184.23 66.196C183.521 66.3763 182.803 66.5148 182.078 66.611C181.235 66.7111 180.386 66.7572 179.537 66.749C178.839 66.7465 178.145 66.6455 177.476 66.449C176.796 66.2543 176.164 65.9191 175.622 65.465C175.044 64.9694 174.59 64.3464 174.294 63.645C173.936 62.7629 173.765 61.8157 173.794 60.864V59.264C173.783 58.4147 173.915 57.5695 174.184 56.764C174.419 56.0559 174.806 55.4075 175.317 54.864C175.829 54.3358 176.45 53.9263 177.137 53.664C177.92 53.3697 178.751 53.2258 179.587 53.24C180.43 53.2234 181.268 53.3793 182.049 53.698C182.727 53.9803 183.333 54.4104 183.823 54.957C184.306 55.5095 184.669 56.1566 184.888 56.857C185.131 57.6336 185.251 58.4433 185.243 59.257L185.234 60.597ZM181.617 58.765C181.67 58.0822 181.475 57.4033 181.067 56.853C180.878 56.6423 180.644 56.4765 180.383 56.3676C180.122 56.2588 179.84 56.2097 179.557 56.224C179.27 56.2114 178.984 56.2624 178.718 56.3732C178.453 56.484 178.216 56.6519 178.023 56.865C177.605 57.4061 177.401 58.0828 177.451 58.765V58.856H181.617V58.765Z" fill="#707070"/>
<path d="M195.878 56.199C195.852 56.2422 195.815 56.2777 195.77 56.3021C195.726 56.3265 195.676 56.3389 195.626 56.338H195.443C194.909 56.3339 194.377 56.4104 193.865 56.565C193.39 56.7121 192.93 56.9036 192.491 57.137V66.068C192.49 66.1923 192.441 66.3114 192.354 66.4C192.314 66.4462 192.265 66.4833 192.21 66.5088C192.154 66.5343 192.094 66.5477 192.033 66.548H189.264C189.139 66.5408 189.021 66.4879 188.932 66.3992C188.843 66.3105 188.79 66.1922 188.783 66.067V53.889C188.785 53.7684 188.834 53.6534 188.92 53.5679C189.005 53.4825 189.119 53.4331 189.24 53.43H191.965C192.025 53.4298 192.084 53.442 192.14 53.4659C192.195 53.4899 192.244 53.525 192.285 53.569C192.329 53.6106 192.363 53.6608 192.387 53.7163C192.41 53.7719 192.422 53.8317 192.422 53.892V54.35C192.855 53.9933 193.347 53.7161 193.876 53.531C194.401 53.3441 194.955 53.249 195.512 53.25C195.572 53.2499 195.631 53.2621 195.686 53.2858C195.741 53.3095 195.791 53.3443 195.832 53.388C195.876 53.4298 195.91 53.4799 195.934 53.5354C195.957 53.591 195.969 53.6507 195.969 53.711V55.901C195.969 56.0079 195.938 56.1124 195.878 56.201" fill="#707070"/>
<path d="M224.678 49.8806L222.549 64.8756C222.539 65.1381 222.475 65.3957 222.361 65.6322C222.247 65.8687 222.085 66.0789 221.885 66.2496C221.453 66.5161 220.95 66.6441 220.443 66.6166H219.143C218.681 66.6279 218.224 66.5091 217.826 66.2736C217.414 65.9883 217.13 65.5522 217.037 65.0596L215.228 58.2146C215.215 58.1556 215.187 58.1007 215.148 58.0546C215.109 58.0358 215.065 58.0278 215.022 58.0316C214.982 58.0262 214.942 58.0343 214.908 58.0546C214.877 58.104 214.854 58.158 214.839 58.2146L213.03 65.0596C212.937 65.5522 212.653 65.9883 212.241 66.2736C211.843 66.509 211.386 66.6278 210.924 66.6166H209.624C209.117 66.6441 208.614 66.5161 208.182 66.2496C207.982 66.0789 207.82 65.8687 207.706 65.6322C207.592 65.3957 207.528 65.1381 207.518 64.8756L205.389 49.8806V49.8356C205.382 49.7887 205.39 49.7409 205.41 49.6981C205.43 49.6553 205.463 49.6193 205.503 49.5946C205.581 49.5563 205.668 49.5368 205.755 49.5376H208.858C209.071 49.5376 209.193 49.6826 209.224 49.9726L210.524 62.2436C210.539 62.4436 210.585 62.5436 210.661 62.5436C210.722 62.5436 210.775 62.4436 210.821 62.2436L212.468 55.9436C212.5 55.7661 212.568 55.5969 212.666 55.4456C212.764 55.2944 212.892 55.1642 213.041 55.0626C213.3 54.9177 213.592 54.8429 213.888 54.8456H216.158C216.454 54.8429 216.746 54.9177 217.005 55.0626C217.154 55.1643 217.281 55.2945 217.38 55.4458C217.478 55.597 217.545 55.7662 217.578 55.9436L219.225 62.2436C219.271 62.4436 219.325 62.5436 219.385 62.5436C219.461 62.5436 219.507 62.4436 219.522 62.2436L220.822 49.9726C220.853 49.6836 220.975 49.5376 221.189 49.5376H224.303C224.39 49.5369 224.477 49.5564 224.555 49.5946C224.595 49.6193 224.628 49.6553 224.648 49.6981C224.668 49.7409 224.676 49.7887 224.669 49.8356L224.678 49.8806Z" fill="#707070"/>
<path d="M237.248 66.0906C237.245 66.2112 237.196 66.326 237.111 66.4113C237.025 66.4966 236.911 66.5458 236.79 66.5486H234.229C234.109 66.5453 233.994 66.496 233.909 66.4108C233.824 66.3256 233.774 66.211 233.771 66.0906V65.7236C233.339 66.0386 232.865 66.2927 232.363 66.4786C231.792 66.674 231.192 66.7671 230.589 66.7536C230.097 66.7535 229.608 66.6862 229.135 66.5536C228.677 66.4281 228.252 66.2057 227.888 65.9016C227.503 65.5716 227.201 65.1557 227.006 64.6876C226.768 64.0914 226.655 63.4524 226.674 62.8106V62.6046C226.629 62.0409 226.728 61.475 226.962 60.9604C227.196 60.4458 227.558 59.9994 228.013 59.6636C229.324 58.9444 230.815 58.6223 232.306 58.7366H233.542V57.9126C233.542 57.2559 233.389 56.8286 233.084 56.6306C232.702 56.4116 232.264 56.3074 231.824 56.3306C231.459 56.3306 231.089 56.3342 230.714 56.3416C230.339 56.3489 229.98 56.3602 229.637 56.3756C229.294 56.3916 228.984 56.4096 228.71 56.4336L228.023 56.4896H227.909C227.801 56.4956 227.695 56.4633 227.609 56.3986C227.567 56.3575 227.534 56.3073 227.515 56.2518C227.495 56.1964 227.488 56.1371 227.494 56.0786V54.2306C227.493 54.1083 227.537 53.99 227.617 53.8979C227.697 53.8057 227.809 53.7462 227.93 53.7306C228.357 53.6246 228.934 53.5179 229.659 53.4106C230.398 53.3033 231.144 53.2498 231.891 53.2506C232.643 53.2419 233.393 53.3307 234.123 53.5146C234.737 53.6645 235.311 53.9453 235.806 54.3376C236.273 54.7244 236.639 55.2198 236.871 55.7806C237.14 56.4612 237.268 57.1891 237.249 57.9206L237.248 66.0906ZM233.608 60.9396H232.308C231.977 60.9316 231.646 60.9652 231.323 61.0396C231.095 61.0919 230.883 61.1978 230.705 61.3486C230.55 61.4897 230.439 61.6722 230.385 61.8746C230.321 62.1135 230.29 62.3602 230.293 62.6076V62.8136C230.293 63.3016 230.411 63.6142 230.648 63.7516C230.987 63.9105 231.361 63.9813 231.735 63.9576C232.074 63.9601 232.411 63.9098 232.735 63.8086C233.038 63.7138 233.332 63.5951 233.616 63.4536L233.608 60.9396Z" fill="#707070"/>
<path d="M252.288 53.8426C252.288 53.8726 252.288 53.8926 252.276 53.8996C252.267 53.9171 252.263 53.9369 252.265 53.9566L248.418 67.4416C248.259 68.0037 248.053 68.551 247.8 69.0776C247.588 69.5216 247.284 69.9156 246.908 70.2336C246.496 70.5628 246.019 70.8013 245.508 70.9336C244.82 71.1085 244.112 71.1893 243.402 71.1736C243.188 71.1736 242.952 71.1623 242.693 71.1396C242.432 71.1166 242.174 71.0896 241.914 71.0596C241.654 71.0296 241.414 70.9906 241.182 70.9456C240.996 70.9107 240.812 70.8646 240.632 70.8076C240.518 70.7656 240.407 70.7162 240.3 70.6596C240.253 70.6348 240.213 70.5967 240.187 70.55C240.161 70.5033 240.149 70.45 240.152 70.3966V68.5396C240.151 68.4812 240.163 68.4233 240.186 68.3699C240.21 68.3165 240.245 68.269 240.289 68.2306C240.375 68.1484 240.49 68.1032 240.609 68.1046H240.655C240.838 68.1196 241.055 68.1346 241.307 68.1496C241.559 68.1646 241.819 68.1846 242.085 68.2076C242.351 68.2306 242.612 68.2486 242.864 68.2646C243.116 68.2806 243.334 68.2866 243.516 68.2866C243.855 68.3072 244.192 68.2193 244.478 68.0356C244.755 67.7886 244.947 67.4603 245.027 67.0976L245.233 66.3876H244.89C244.686 66.3889 244.483 66.3698 244.283 66.3306C244.079 66.2863 243.887 66.1964 243.722 66.0676C243.509 65.8948 243.334 65.6804 243.207 65.4376C243.011 65.0642 242.861 64.6683 242.76 64.2586L239.738 53.9586C239.722 53.9071 239.715 53.8534 239.716 53.7996C239.716 53.5556 239.868 53.4326 240.174 53.4326H243.218C243.272 53.4298 243.326 53.4396 243.376 53.4613C243.425 53.483 243.469 53.516 243.504 53.5576C243.575 53.6488 243.626 53.7541 243.653 53.8666L245.713 62.4746C245.774 62.7646 245.866 62.9096 245.987 62.9096H246.193L248.322 53.8676C248.35 53.7509 248.409 53.6441 248.493 53.5586C248.533 53.5178 248.581 53.4856 248.635 53.4641C248.688 53.4426 248.745 53.4322 248.802 53.4336H251.846C251.96 53.4305 252.071 53.4713 252.155 53.5476C252.197 53.5854 252.23 53.6318 252.251 53.6836C252.273 53.7355 252.283 53.7914 252.281 53.8476" fill="#707070"/>
<path d="M87.144 62.0401H65.092C64.6333 62.0401 64.1934 61.8578 63.869 61.5335C63.5447 61.2091 63.3625 60.7692 63.3625 60.3106C63.3625 59.8519 63.5447 59.412 63.869 59.0876C64.1934 58.7633 64.6333 58.5811 65.092 58.5811H87.144C87.6027 58.5811 88.0426 58.7633 88.3669 59.0876C88.6913 59.412 88.8735 59.8519 88.8735 60.3106C88.8735 60.7692 88.6913 61.2091 88.3669 61.5335C88.0426 61.8578 87.6027 62.0401 87.144 62.0401Z" fill="#707070"/>
</g>
</svg>
