<svg width="24" height="27" viewBox="0 0 24 27" fill="none" xmlns="http://www.w3.org/2000/svg">
<path d="M4.75902 21.591C7.30008 21.591 9.36002 19.531 9.36002 16.99C9.36002 14.4489 7.30008 12.389 4.75902 12.389C2.21796 12.389 0.15802 14.4489 0.15802 16.99C0.15802 19.531 2.21796 21.591 4.75902 21.591Z" fill="#60269E"/>
<path d="M10.422 9.55698C12.9631 9.55698 15.023 7.49704 15.023 4.95598C15.023 2.41492 12.9631 0.35498 10.422 0.35498C7.88098 0.35498 5.82104 2.41492 5.82104 4.95598C5.82104 7.49704 7.88098 9.55698 10.422 9.55698Z" fill="#60269E"/>
<path d="M18.957 26.614C21.429 26.614 23.433 24.61 23.433 22.138C23.433 19.666 21.429 17.662 18.957 17.662C16.485 17.662 14.481 19.666 14.481 22.138C14.481 24.61 16.485 26.614 18.957 26.614Z" fill="#60269E"/>
</svg>
